<svg xmlns="http://www.w3.org/2000/svg" width="640" height="560" viewBox="0 0 640 560" xml:space="preserve">
<defs>
  <marker id="arrow" markerWidth="10" markerHeight="7" refX="9" refY="3.5" orient="auto">
    <polygon points="0 0, 10 3.5, 0 7" fill="#555"/>
  </marker>
  <filter id="shadow" x="-10%" y="-10%" width="120%" height="120%">
    <feDropShadow dx="0" dy="1" stdDeviation="2" flood-opacity="0.12"/>
  </filter>
</defs>
<rect width="640" height="560" fill="#f8f9fa"/>
<rect x="220" y="20" width="200" height="52" rx="26" fill="#2C3E50" filter="url(#shadow)"/>
<text x="320" y="46" text-anchor="middle" dominant-baseline="middle" font-family="system-ui, -apple-system, sans-serif" font-size="14" font-weight="bold" fill="white">Forward triggered</text>
<rect x="170" y="130" width="300" height="58" rx="8" fill="#3498DB" filter="url(#shadow)"/>
<text x="320" y="159" text-anchor="middle" dominant-baseline="middle" font-family="system-ui, -apple-system, sans-serif" font-size="14" font-weight="bold" fill="white">Check tracking wallet balance</text>
<polygon points="320,218 420,258 320,298 220,258" fill="#7F8C8D" filter="url(#shadow)"/>
<text x="320" y="252" text-anchor="middle" dominant-baseline="middle" font-family="system-ui, -apple-system, sans-serif" font-size="11" fill="white">balance ≥</text>
<text x="320" y="267" text-anchor="middle" dominant-baseline="middle" font-family="system-ui, -apple-system, sans-serif" font-size="11" fill="white">minBalance?</text>
<rect x="460" y="232" width="165" height="58" rx="8" fill="#27AE60" filter="url(#shadow)"/>
<text x="542" y="261" text-anchor="middle" dominant-baseline="middle" font-family="system-ui, -apple-system, sans-serif" font-size="14" font-weight="bold" fill="white">Proceed with transfer</text>
<rect x="170" y="365" width="300" height="58" rx="8" fill="#3498DB" filter="url(#shadow)"/>
<text x="320" y="394" text-anchor="middle" dominant-baseline="middle" font-family="system-ui, -apple-system, sans-serif" font-size="14" font-weight="bold" fill="white">Check reserve balance</text>
<polygon points="320,448 420,488 320,528 220,488" fill="#7F8C8D" filter="url(#shadow)"/>
<text x="320" y="482" text-anchor="middle" dominant-baseline="middle" font-family="system-ui, -apple-system, sans-serif" font-size="11" fill="white">reserve ≥</text>
<text x="320" y="497" text-anchor="middle" dominant-baseline="middle" font-family="system-ui, -apple-system, sans-serif" font-size="11" fill="white">topUpAmount?</text>
<rect x="460" y="462" width="165" height="58" rx="8" fill="#27AE60" filter="url(#shadow)"/>
<text x="542" y="480" text-anchor="middle" dominant-baseline="middle" font-family="system-ui, -apple-system, sans-serif" font-size="14" font-weight="bold" fill="white">Send native to</text>
<text x="542" y="498" text-anchor="middle" dominant-baseline="middle" font-family="system-ui, -apple-system, sans-serif" font-size="14" font-weight="bold" fill="white">tracking wallet</text>
<text x="542" y="514" text-anchor="middle" dominant-baseline="middle" font-family="ui-monospace, monospace" font-size="11" fill="white" opacity="0.85">then proceed</text>
<rect x="5" y="462" width="165" height="58" rx="8" fill="#E74C3C" filter="url(#shadow)"/>
<text x="87" y="480" text-anchor="middle" dominant-baseline="middle" font-family="system-ui, -apple-system, sans-serif" font-size="14" font-weight="bold" fill="white">Throw — operator</text>
<text x="87" y="498" text-anchor="middle" dominant-baseline="middle" font-family="system-ui, -apple-system, sans-serif" font-size="14" font-weight="bold" fill="white">must refill reserve</text>
<line x1="320" y1="72" x2="320" y2="130" stroke="#555" stroke-width="1.5" marker-end="url(#arrow)"/>
<line x1="320" y1="188" x2="320" y2="218" stroke="#555" stroke-width="1.5" marker-end="url(#arrow)"/>
<line x1="420" y1="258" x2="460" y2="258" stroke="#555" stroke-width="1.5" marker-end="url(#arrow)"/>
<text x="425" y="250" font-family="system-ui, -apple-system, sans-serif" font-size="11" fill="#555" font-style="italic">Yes</text>
<line x1="320" y1="298" x2="320" y2="365" stroke="#555" stroke-width="1.5" marker-end="url(#arrow)"/>
<text x="326" y="338" font-family="system-ui, -apple-system, sans-serif" font-size="11" fill="#555" font-style="italic">No</text>
<line x1="320" y1="423" x2="320" y2="448" stroke="#555" stroke-width="1.5" marker-end="url(#arrow)"/>
<line x1="420" y1="488" x2="460" y2="488" stroke="#555" stroke-width="1.5" marker-end="url(#arrow)"/>
<text x="425" y="480" font-family="system-ui, -apple-system, sans-serif" font-size="11" fill="#555" font-style="italic">Yes</text>
<line x1="220" y1="488" x2="170" y2="488" stroke="#555" stroke-width="1.5" marker-end="url(#arrow)"/>
<text x="178" y="480" font-family="system-ui, -apple-system, sans-serif" font-size="11" fill="#555" font-style="italic">No</text>
</svg>