<svg xmlns="http://www.w3.org/2000/svg" width="780" height="440" viewBox="0 0 780 440" xml:space="preserve">
<defs>
  <marker id="arrow" markerWidth="10" markerHeight="7" refX="9" refY="3.5" orient="auto">
    <polygon points="0 0, 10 3.5, 0 7" fill="#555"/>
  </marker>
  <filter id="shadow" x="-10%" y="-10%" width="120%" height="120%">
    <feDropShadow dx="0" dy="1" stdDeviation="2" flood-opacity="0.12"/>
  </filter>
</defs>
<rect width="780" height="440" fill="#f8f9fa"/>
<rect x="20" y="20" width="220" height="55" rx="6" fill="#F39C12" filter="url(#shadow)"/>
<text x="130" y="38" text-anchor="middle" font-family="system-ui, -apple-system, sans-serif" font-size="12" font-weight="bold" fill="white">⚠ One master seed</text>
<text x="130" y="54" text-anchor="middle" font-family="system-ui, -apple-system, sans-serif" font-size="11" fill="white">controls all wallets</text>
<text x="130" y="68" text-anchor="middle" font-family="system-ui, -apple-system, sans-serif" font-size="11" fill="white">Back up securely</text>
<rect x="265" y="20" width="250" height="62" rx="8" fill="#E74C3C" filter="url(#shadow)"/>
<text x="390" y="41" text-anchor="middle" dominant-baseline="middle" font-family="system-ui, -apple-system, sans-serif" font-size="14" font-weight="bold" fill="white">Master Seed (32 bytes)</text>
<text x="390" y="61" text-anchor="middle" dominant-baseline="middle" font-family="ui-monospace, monospace" font-size="11" fill="white" opacity="0.85">stored in KMS / Vault</text>
<rect x="290" y="138" width="200" height="55" rx="8" fill="#2C3E50" filter="url(#shadow)"/>
<text x="390" y="160" text-anchor="middle" dominant-baseline="middle" font-family="system-ui, -apple-system, sans-serif" font-size="14" font-weight="bold" fill="white">BIP32 Root Key  m/</text>
<rect x="60" y="253" width="240" height="55" rx="8" fill="#3498DB" filter="url(#shadow)"/>
<text x="180" y="275" text-anchor="middle" dominant-baseline="middle" font-family="system-ui, -apple-system, sans-serif" font-size="14" font-weight="bold" fill="white">EVM  m/44'/60'/0'/0/</text>
<rect x="480" y="253" width="240" height="55" rx="8" fill="#9B59B6" filter="url(#shadow)"/>
<text x="600" y="275" text-anchor="middle" dominant-baseline="middle" font-family="system-ui, -apple-system, sans-serif" font-size="14" font-weight="bold" fill="white">Tron  m/44'/195'/0'/0/</text>
<rect x="20" y="368" width="135" height="60" rx="8" fill="#27AE60" filter="url(#shadow)"/>
<text x="87" y="390" text-anchor="middle" dominant-baseline="middle" font-family="system-ui, -apple-system, sans-serif" font-size="14" font-weight="bold" fill="white">Index 0</text>
<text x="87" y="410" text-anchor="middle" dominant-baseline="middle" font-family="ui-monospace, monospace" font-size="11" fill="white" opacity="0.85">Eth / Arb / Base / BSC</text>
<rect x="165" y="368" width="100" height="60" rx="8" fill="#27AE60" filter="url(#shadow)"/>
<text x="215" y="398" text-anchor="middle" dominant-baseline="middle" font-family="system-ui, -apple-system, sans-serif" font-size="14" font-weight="bold" fill="white">Index 1</text>
<rect x="275" y="368" width="60" height="60" rx="8" fill="#27AE60" filter="url(#shadow)"/>
<text x="305" y="398" text-anchor="middle" dominant-baseline="middle" font-family="system-ui, -apple-system, sans-serif" font-size="14" font-weight="bold" fill="white">…N</text>
<rect x="480" y="368" width="115" height="60" rx="8" fill="#E67E22" filter="url(#shadow)"/>
<text x="537" y="390" text-anchor="middle" dominant-baseline="middle" font-family="system-ui, -apple-system, sans-serif" font-size="14" font-weight="bold" fill="white">Index 0</text>
<text x="537" y="410" text-anchor="middle" dominant-baseline="middle" font-family="ui-monospace, monospace" font-size="11" fill="white" opacity="0.85">Tron</text>
<rect x="605" y="368" width="100" height="60" rx="8" fill="#E67E22" filter="url(#shadow)"/>
<text x="655" y="398" text-anchor="middle" dominant-baseline="middle" font-family="system-ui, -apple-system, sans-serif" font-size="14" font-weight="bold" fill="white">Index 1</text>
<rect x="715" y="368" width="45" height="60" rx="8" fill="#E67E22" filter="url(#shadow)"/>
<text x="737" y="398" text-anchor="middle" dominant-baseline="middle" font-family="system-ui, -apple-system, sans-serif" font-size="14" font-weight="bold" fill="white">…N</text>
<line x1="390" y1="82" x2="390" y2="138" stroke="#555" stroke-width="1.5" marker-end="url(#arrow)"/>
<path d="M 340 193 L 340 225 L 180 225 L 180 253" fill="none" stroke="#555" stroke-width="1.5" marker-end="url(#arrow)"/>
<path d="M 440 193 L 440 225 L 600 225 L 600 253" fill="none" stroke="#555" stroke-width="1.5" marker-end="url(#arrow)"/>
<line x1="87" y1="308" x2="87" y2="368" stroke="#555" stroke-width="1.5" marker-end="url(#arrow)"/>
<line x1="215" y1="308" x2="215" y2="368" stroke="#555" stroke-width="1.5" marker-end="url(#arrow)"/>
<line x1="305" y1="308" x2="305" y2="368" stroke="#555" stroke-width="1.5" marker-end="url(#arrow)"/>
<line x1="537" y1="308" x2="537" y2="368" stroke="#555" stroke-width="1.5" marker-end="url(#arrow)"/>
<line x1="655" y1="308" x2="655" y2="368" stroke="#555" stroke-width="1.5" marker-end="url(#arrow)"/>
<line x1="737" y1="308" x2="737" y2="368" stroke="#555" stroke-width="1.5" marker-end="url(#arrow)"/>
</svg>